<?xml version="1.0" encoding="utf-8"?>
<!-- Generator: Adobe Illustrator 16.0.4, SVG Export Plug-In . SVG Version: 6.00 Build 0)  -->
<!DOCTYPE svg PUBLIC "-//W3C//DTD SVG 1.1//EN" "http://www.w3.org/Graphics/SVG/1.1/DTD/svg11.dtd">
<svg version="1.1" id="Layer_1" xmlns="http://www.w3.org/2000/svg" xmlns:xlink="http://www.w3.org/1999/xlink" x="0px" y="0px"
	 width="239.5px" height="43.6px" viewBox="0 -7.4 239.5 43.6" style="enable-background:new 0 -7.4 239.5 43.6;"
	 xml:space="preserve">
<style type="text/css">
<![CDATA[
	.st0{fill:#FFFFFF;}
]]>
</style>
<polygon class="st0" points="0,28.6 17.9,-2.4 35.8,28.6 "/>
<polygon class="st0" points="18.7,28.6 33.6,2.8 48.5,28.6 "/>
<g>
	<path class="st0" d="M59,28.5c-0.6,0.2-1.3,0.3-2.1,0.3s-1.5-0.1-2.1-0.3s-1.1-0.5-1.5-0.9c-0.4-0.4-0.7-0.9-1-1.4
		s-0.4-1.2-0.5-1.9c-0.1-0.7-0.2-1.4-0.2-2.3V10.2h2.6V22c0,0.6,0,1,0,1.4c0,0.4,0.1,0.8,0.2,1.2c0.1,0.4,0.2,0.8,0.4,1
		c0.2,0.3,0.4,0.5,0.8,0.6c0.3,0.2,0.7,0.3,1.2,0.3s0.9-0.1,1.2-0.3c0.3-0.2,0.6-0.4,0.8-0.6s0.3-0.6,0.4-1c0.1-0.4,0.2-0.8,0.2-1.2
		s0-0.9,0-1.4V10.2h2.6V22c0,0.8-0.1,1.6-0.2,2.3c-0.1,0.7-0.3,1.3-0.5,1.9s-0.6,1.1-1,1.4C60.1,28,59.6,28.3,59,28.5z"/>
	<path class="st0" d="M65,28.6V10.2h4.6c3.1,0,4.6,1.8,4.6,5.2c0,1.5-0.4,2.6-1.2,3.4c-0.8,0.8-1.9,1.2-3.4,1.2h-2v8.5H65z
		 M67.6,18.1h0.7c0.6,0,1.1,0,1.5-0.1c0.4-0.1,0.7-0.2,1-0.4c0.3-0.2,0.5-0.5,0.6-0.8c0.1-0.3,0.2-0.8,0.2-1.3c0-0.7,0-1.2-0.1-1.6
		c-0.1-0.4-0.3-0.7-0.5-1c-0.3-0.3-0.6-0.4-1-0.5c-0.4-0.1-0.9-0.1-1.6-0.1h-0.7V18.1z"/>
	<path class="st0" d="M78.2,28.6l-3.3-18.4h2.6l1.3,8.5l0.7,5.2l0.6-5.2l1.3-8.5h2.6l1.3,8.5l0.6,5.2l0.7-5.2l1.3-8.5h2.6l-3.3,18.4
		h-2.6l-1.3-8.5l-0.7-5.2l-0.7,5.2l-1.3,8.5H78.2z"/>
	<path class="st0" d="M90.9,28.6l3.9-18.4h2.6l3.9,18.4h-2.6l-1-4.6h-3.3l-1,4.6H90.9z M94.9,22h2.6l-1.3-7.9L94.9,22z"/>
	<path class="st0" d="M103.3,28.6V10.2h3.3c2,0,3.4,0.4,4.4,1.1c1,0.8,1.5,2,1.5,3.8c0,1.1-0.2,2-0.6,2.7c-0.4,0.7-1,1.2-1.7,1.5
		l3,9.2h-2.6l-2.6-8.5h-2v8.5H103.3z M106,18.1h0.7c1.1,0,1.9-0.2,2.5-0.7c0.5-0.5,0.8-1.2,0.8-2.3s-0.3-1.8-0.8-2.3
		c-0.5-0.5-1.4-0.7-2.5-0.7H106V18.1z"/>
	<path class="st0" d="M115.1,28.6V10.2h4.1c1.9,0,3.3,0.4,4.1,1.2c0.8,0.8,1.2,2.1,1.2,4.1v7.2c0,2-0.4,3.5-1.2,4.5
		c-0.8,1-2.2,1.4-4.1,1.4H115.1z M117.7,26.6h1.4c0.4,0,0.8,0,1.1-0.1c0.3-0.1,0.6-0.2,0.7-0.4c0.2-0.2,0.3-0.4,0.5-0.6
		c0.1-0.2,0.2-0.5,0.2-0.9c0-0.4,0.1-0.7,0.1-1c0-0.3,0-0.7,0-1.2c0-0.2,0-0.3,0-0.4v-5.9c0-0.3,0-0.6,0-0.8c0-0.2,0-0.4,0-0.7
		c0-0.3,0-0.5-0.1-0.6s-0.1-0.3-0.1-0.5c-0.1-0.2-0.1-0.3-0.2-0.5c-0.1-0.1-0.2-0.2-0.3-0.3c-0.1-0.1-0.3-0.2-0.5-0.3
		c-0.2-0.1-0.4-0.1-0.6-0.1s-0.5-0.1-0.8-0.1h-1.4V26.6z"/>
	<path class="st0" d="M133.8,28.6v-16h-3.3v-2.3h9.2v2.3h-3.3v16H133.8z"/>
	<path class="st0" d="M141.4,28.6V10.2h3.3c2,0,3.4,0.4,4.4,1.1c1,0.8,1.5,2,1.5,3.8c0,1.1-0.2,2-0.6,2.7c-0.4,0.7-1,1.2-1.7,1.5
		l3,9.2h-2.6l-2.6-8.5h-2v8.5H141.4z M144.1,18.1h0.7c1.1,0,1.9-0.2,2.5-0.7c0.5-0.5,0.8-1.2,0.8-2.3s-0.3-1.8-0.8-2.3
		c-0.5-0.5-1.4-0.7-2.5-0.7h-0.7V18.1z"/>
	<path class="st0" d="M152.1,28.6l3.9-18.4h2.6l3.9,18.4h-2.6l-1-4.6h-3.3l-1,4.6H152.1z M156,22h2.6l-1.3-7.9L156,22z"/>
	<path class="st0" d="M163.4,28.6v-2c0.6,0,1,0,1.3-0.1c0.3-0.1,0.6-0.2,0.8-0.4c0.2-0.2,0.3-0.5,0.4-0.8s0.1-0.8,0.1-1.3V10.2h2.6
		V24c0,0.8-0.1,1.5-0.2,2.1c-0.1,0.5-0.3,1-0.6,1.4c-0.3,0.4-0.7,0.7-1.2,0.9c-0.5,0.2-1.2,0.3-2,0.3H163.4z"/>
	<path class="st0" d="M171.7,28.6V10.2h7.2v2h-4.6v5.9h3.3v2h-3.3v6.6h4.6v2H171.7z"/>
	<path class="st0" d="M185.6,28.8c-0.8,0-1.5-0.1-2-0.3s-1.1-0.5-1.4-0.9c-0.4-0.4-0.7-0.9-0.9-1.4c-0.2-0.6-0.4-1.2-0.5-1.9
		s-0.1-1.4-0.1-2.2v-5.2c0-0.8,0-1.6,0.1-2.2s0.3-1.3,0.5-1.9c0.2-0.6,0.5-1.1,0.9-1.4s0.9-0.7,1.4-0.9s1.3-0.3,2-0.3
		c0.9,0,1.6,0.1,2.2,0.4s1.1,0.6,1.5,1.1c0.4,0.5,0.7,1.1,0.8,1.7c0.2,0.6,0.3,1.4,0.3,2.3c0,0.1,0,0.3,0,0.6h-2.6v-0.6
		c0-0.4,0-0.7,0-0.9c0-0.3-0.1-0.5-0.1-0.8s-0.1-0.5-0.2-0.7c-0.1-0.2-0.2-0.3-0.4-0.5c-0.2-0.2-0.4-0.3-0.6-0.3
		c-0.2-0.1-0.5-0.1-0.9-0.1c-0.4,0-0.8,0.1-1.1,0.2c-0.3,0.1-0.5,0.3-0.7,0.5c-0.2,0.2-0.3,0.5-0.4,0.9c-0.1,0.4-0.2,0.7-0.2,1.1
		s0,0.8,0,1.3v6.6c0,0.4,0,0.8,0.1,1.2c0,0.4,0.1,0.7,0.2,1.1c0.1,0.4,0.3,0.6,0.4,0.9c0.2,0.2,0.4,0.4,0.7,0.6
		c0.3,0.1,0.6,0.2,1,0.2s0.7-0.1,1-0.2s0.5-0.3,0.7-0.6c0.2-0.2,0.3-0.5,0.4-0.9c0.1-0.4,0.2-0.7,0.2-1.1s0-0.7,0-1.2V22h2.6v0.7
		c0,1-0.1,1.8-0.3,2.5c-0.2,0.7-0.4,1.4-0.8,1.9c-0.4,0.5-0.9,1-1.5,1.3C187.3,28.6,186.5,28.8,185.6,28.8z"/>
	<path class="st0" d="M194.6,28.6v-16h-3.3v-2.3h9.2v2.3h-3.3v16H194.6z"/>
	<path class="st0" d="M206.9,28.8c-0.9,0-1.7-0.1-2.4-0.4c-0.7-0.3-1.2-0.7-1.6-1.2c-0.4-0.5-0.7-1.2-0.9-1.9
		c-0.2-0.7-0.3-1.6-0.3-2.5V16c0-1,0.1-1.8,0.3-2.5s0.5-1.3,0.9-1.9c0.4-0.5,0.9-0.9,1.6-1.2c0.7-0.3,1.5-0.4,2.4-0.4
		c1.8,0,3.1,0.5,3.9,1.5s1.2,2.5,1.2,4.5v6.7c0,1-0.1,1.8-0.3,2.5c-0.2,0.7-0.5,1.4-0.9,1.9c-0.4,0.5-0.9,1-1.6,1.2
		C208.6,28.6,207.8,28.8,206.9,28.8z M204.9,25.8c0.4,0.6,1,0.8,1.9,0.8s1.6-0.3,1.9-0.8c0.4-0.6,0.5-1.4,0.5-2.5v-8
		c0-1.1-0.2-1.9-0.5-2.4c-0.3-0.5-1-0.8-1.9-0.8s-1.6,0.3-1.9,0.8c-0.3,0.5-0.5,1.3-0.5,2.4v8C204.4,24.4,204.6,25.2,204.9,25.8z"/>
	<path class="st0" d="M214.6,28.6V10.2h3.3c2,0,3.4,0.4,4.4,1.1c1,0.8,1.5,2,1.5,3.8c0,1.1-0.2,2-0.6,2.7c-0.4,0.7-1,1.2-1.7,1.5
		l3,9.2h-2.6l-2.6-8.5h-2v8.5H214.6z M217.3,18.1h0.7c1.1,0,1.9-0.2,2.5-0.7c0.5-0.5,0.8-1.2,0.8-2.3s-0.3-1.8-0.8-2.3
		c-0.5-0.5-1.4-0.7-2.5-0.7h-0.7V18.1z"/>
	<path class="st0" d="M228.7,28.6v-5.9l-3.9-12.5h2.6l2.6,9.2l2.6-9.2h2.6l-3.9,12.5v5.9H228.7z"/>
</g>
</svg>
