<?xml version="1.0" encoding="utf-8"?>
<!-- Generator: Adobe Illustrator 16.0.4, SVG Export Plug-In . SVG Version: 6.00 Build 0)  -->
<!DOCTYPE svg PUBLIC "-//W3C//DTD SVG 1.1//EN" "http://www.w3.org/Graphics/SVG/1.1/DTD/svg11.dtd">
<svg version="1.1" id="Layer_1" xmlns="http://www.w3.org/2000/svg" xmlns:xlink="http://www.w3.org/1999/xlink" x="0px" y="0px"
	 width="415.7px" height="36px" viewBox="0 0 415.7 36" style="enable-background:new 0 0 415.7 36;" xml:space="preserve">
<style type="text/css">
<![CDATA[
	.st0{fill:#FFFFFF;}
]]>
</style>
<polygon class="st0" points="51.6,19.8 41.7,3.7 33,17.8 21.9,-0.1 10.7,17.9 -0.5,35.8 21.9,35.8 21.9,35.8 41.7,35.8 44.2,35.8 
	61.5,35.8 "/>
<g>
	<path class="st0" d="M77.7,35.7C77,35.9,76.3,36,75.5,36s-1.5-0.1-2.1-0.3s-1.1-0.5-1.5-0.9c-0.4-0.4-0.7-0.9-1-1.4
		s-0.4-1.2-0.5-1.9c-0.1-0.7-0.2-1.4-0.2-2.3V17.5h2.6v11.8c0,0.6,0,1,0,1.4c0,0.4,0.1,0.8,0.2,1.2c0.1,0.4,0.2,0.8,0.4,1
		c0.2,0.3,0.4,0.5,0.8,0.6s0.7,0.3,1.2,0.3s0.9-0.1,1.2-0.3c0.3-0.2,0.6-0.4,0.8-0.6s0.3-0.6,0.4-1c0.1-0.4,0.2-0.8,0.2-1.2
		s0-0.9,0-1.4V17.5h2.6v11.8c0,0.8-0.1,1.6-0.2,2.3c-0.1,0.7-0.3,1.3-0.5,1.9s-0.6,1.1-1,1.4C78.8,35.2,78.3,35.5,77.7,35.7z"/>
	<path class="st0" d="M83.8,35.8V17.5h4.6c3.1,0,4.6,1.8,4.6,5.2c0,1.5-0.4,2.6-1.2,3.4c-0.8,0.8-1.9,1.2-3.4,1.2h-2v8.5H83.8z
		 M86.4,25.3h0.7c0.6,0,1.1,0,1.5-0.1c0.4-0.1,0.7-0.2,1-0.4c0.3-0.2,0.5-0.5,0.6-0.8c0.1-0.3,0.2-0.8,0.2-1.3c0-0.7,0-1.2-0.1-1.6
		c-0.1-0.4-0.3-0.7-0.5-1c-0.3-0.3-0.6-0.4-1-0.5c-0.4-0.1-0.9-0.1-1.6-0.1h-0.7V25.3z"/>
	<path class="st0" d="M97.1,35.8l-3.3-18.4h2.6l1.3,8.5l0.7,5.2L99,26l1.3-8.5h2.6l1.3,8.5l0.6,5.2l0.7-5.2l1.3-8.5h2.6l-3.3,18.4
		h-2.6l-1.3-8.5l-0.7-5.2l-0.7,5.2l-1.3,8.5H97.1z"/>
	<path class="st0" d="M109.9,35.8l3.9-18.4h2.6l3.9,18.4h-2.6l-1-4.6h-3.3l-1,4.6H109.9z M113.9,29.3h2.6l-1.3-7.9L113.9,29.3z"/>
	<path class="st0" d="M122.4,35.8V17.5h3.3c2,0,3.4,0.4,4.4,1.1s1.5,2,1.5,3.8c0,1.1-0.2,2-0.6,2.7s-1,1.2-1.7,1.5l3,9.2h-2.6
		l-2.6-8.5h-2v8.5H122.4z M125.1,25.3h0.7c1.1,0,1.9-0.2,2.5-0.7c0.5-0.5,0.8-1.2,0.8-2.3s-0.3-1.8-0.8-2.3
		c-0.5-0.5-1.4-0.7-2.5-0.7h-0.7V25.3z"/>
	<path class="st0" d="M134.3,35.8V17.5h4.1c1.9,0,3.3,0.4,4.1,1.2c0.8,0.8,1.2,2.1,1.2,4.1v7.2c0,2-0.4,3.5-1.2,4.5
		c-0.8,1-2.2,1.4-4.1,1.4H134.3z M136.9,33.9h1.4c0.4,0,0.8,0,1.1-0.1c0.3-0.1,0.6-0.2,0.7-0.4c0.2-0.2,0.3-0.4,0.5-0.6
		c0.1-0.2,0.2-0.5,0.2-0.9c0-0.4,0.1-0.7,0.1-1c0-0.3,0-0.7,0-1.2c0-0.2,0-0.3,0-0.4v-5.9c0-0.3,0-0.6,0-0.8c0-0.2,0-0.4,0-0.7
		c0-0.3,0-0.5-0.1-0.6s-0.1-0.3-0.1-0.5c-0.1-0.2-0.1-0.3-0.2-0.5c-0.1-0.1-0.2-0.2-0.3-0.3c-0.1-0.1-0.3-0.2-0.5-0.3
		c-0.2-0.1-0.4-0.1-0.6-0.1s-0.5-0.1-0.8-0.1h-1.4V33.9z"/>
	<path class="st0" d="M153.2,35.8v-16h-3.3v-2.3h9.2v2.3h-3.3v16H153.2z"/>
	<path class="st0" d="M160.9,35.8V17.5h3.3c2,0,3.4,0.4,4.4,1.1c1,0.8,1.5,2,1.5,3.8c0,1.1-0.2,2-0.6,2.7c-0.4,0.7-1,1.2-1.7,1.5
		l3,9.2h-2.6l-2.6-8.5h-2v8.5H160.9z M163.6,25.3h0.7c1.1,0,1.9-0.2,2.5-0.7c0.5-0.5,0.8-1.2,0.8-2.3s-0.3-1.8-0.8-2.3
		c-0.5-0.5-1.4-0.7-2.5-0.7h-0.7V25.3z"/>
	<path class="st0" d="M171.7,35.8l3.9-18.4h2.6l3.9,18.4h-2.6l-1-4.6h-3.3l-1,4.6H171.7z M175.6,29.3h2.6l-1.3-7.9L175.6,29.3z"/>
	<path class="st0" d="M183.1,35.8v-2c0.6,0,1,0,1.3-0.1c0.3-0.1,0.6-0.2,0.8-0.4c0.2-0.2,0.3-0.5,0.4-0.8s0.1-0.8,0.1-1.3V17.5h2.6
		v13.8c0,0.8-0.1,1.5-0.2,2.1c-0.1,0.5-0.3,1-0.6,1.4c-0.3,0.4-0.7,0.7-1.2,0.9c-0.5,0.2-1.2,0.3-2,0.3H183.1z"/>
	<path class="st0" d="M191.5,35.8V17.5h7.2v2h-4.6v5.9h3.3v2h-3.3v6.6h4.6v2H191.5z"/>
	<path class="st0" d="M205.6,36c-0.8,0-1.5-0.1-2-0.3s-1.1-0.5-1.4-0.9s-0.7-0.9-0.9-1.4c-0.2-0.6-0.4-1.2-0.5-1.9s-0.1-1.4-0.1-2.2
		V24c0-0.8,0-1.6,0.1-2.2s0.3-1.3,0.5-1.9c0.2-0.6,0.5-1.1,0.9-1.4s0.9-0.7,1.4-0.9s1.3-0.3,2-0.3c0.9,0,1.6,0.1,2.2,0.4
		s1.1,0.6,1.5,1.1c0.4,0.5,0.7,1.1,0.8,1.7c0.2,0.6,0.3,1.4,0.3,2.3c0,0.1,0,0.3,0,0.6h-2.6v-0.6c0-0.4,0-0.7,0-0.9
		c0-0.3-0.1-0.5-0.1-0.8s-0.1-0.5-0.2-0.7c-0.1-0.2-0.2-0.3-0.4-0.5c-0.2-0.2-0.4-0.3-0.6-0.3c-0.2-0.1-0.5-0.1-0.9-0.1
		c-0.4,0-0.8,0.1-1.1,0.2c-0.3,0.1-0.5,0.3-0.7,0.5c-0.2,0.2-0.3,0.5-0.4,0.9c-0.1,0.4-0.2,0.7-0.2,1.1s0,0.8,0,1.3v6.6
		c0,0.4,0,0.8,0.1,1.2c0,0.4,0.1,0.7,0.2,1.1c0.1,0.4,0.3,0.6,0.4,0.9c0.2,0.2,0.4,0.4,0.7,0.6c0.3,0.1,0.6,0.2,1,0.2s0.7-0.1,1-0.2
		s0.5-0.3,0.7-0.6c0.2-0.2,0.3-0.5,0.4-0.9c0.1-0.4,0.2-0.7,0.2-1.1s0-0.7,0-1.2v-0.7h2.6v0.7c0,1-0.1,1.8-0.3,2.5
		c-0.2,0.7-0.4,1.4-0.8,1.9c-0.4,0.6-0.9,1-1.5,1.3C207.3,35.9,206.5,36,205.6,36z"/>
	<path class="st0" d="M214.7,35.8v-16h-3.3v-2.3h9.2v2.3h-3.3v16H214.7z"/>
	<path class="st0" d="M227.1,36c-0.9,0-1.7-0.1-2.4-0.4c-0.7-0.3-1.2-0.7-1.6-1.2c-0.4-0.5-0.7-1.2-0.9-1.9
		c-0.2-0.7-0.3-1.6-0.3-2.5v-6.7c0-1,0.1-1.8,0.3-2.5s0.5-1.3,0.9-1.9c0.4-0.5,0.9-0.9,1.6-1.2c0.7-0.3,1.5-0.4,2.4-0.4
		c1.8,0,3.1,0.5,3.9,1.5s1.2,2.5,1.2,4.5v6.7c0,1-0.1,1.8-0.3,2.5c-0.2,0.7-0.5,1.4-0.9,1.9c-0.4,0.5-0.9,1-1.6,1.2
		C228.8,35.9,228,36,227.1,36z M225.1,33c0.4,0.6,1,0.8,1.9,0.8s1.6-0.3,1.9-0.8c0.4-0.6,0.5-1.4,0.5-2.5v-8c0-1.1-0.2-1.9-0.5-2.4
		c-0.3-0.5-1-0.8-1.9-0.8s-1.6,0.3-1.9,0.8c-0.3,0.5-0.5,1.3-0.5,2.4v8C224.6,31.7,224.8,32.5,225.1,33z"/>
	<path class="st0" d="M234.9,35.8V17.5h3.3c2,0,3.4,0.4,4.4,1.1c1,0.8,1.5,2,1.5,3.8c0,1.1-0.2,2-0.6,2.7c-0.4,0.7-1,1.2-1.7,1.5
		l3,9.2h-2.6l-2.6-8.5h-2v8.5H234.9z M237.6,25.3h0.7c1.1,0,1.9-0.2,2.5-0.7c0.5-0.5,0.8-1.2,0.8-2.3s-0.3-1.8-0.8-2.3
		c-0.5-0.5-1.4-0.7-2.5-0.7h-0.7V25.3z"/>
	<path class="st0" d="M249.1,35.8v-5.9l-3.9-12.5h2.6l2.6,9.2l2.6-9.2h2.6l-3.9,12.5v5.9H249.1z"/>
</g>
</svg>
