<?xml version="1.0" encoding="utf-8"?>
<!-- Generator: Adobe Illustrator 16.0.4, SVG Export Plug-In . SVG Version: 6.00 Build 0)  -->
<!DOCTYPE svg PUBLIC "-//W3C//DTD SVG 1.1//EN" "http://www.w3.org/Graphics/SVG/1.1/DTD/svg11.dtd">
<svg version="1.1" id="Layer_1" xmlns="http://www.w3.org/2000/svg" xmlns:xlink="http://www.w3.org/1999/xlink" x="0px" y="0px"
	 width="256.2px" height="36.2px" viewBox="0 0 256.2 36.2" style="enable-background:new 0 0 256.2 36.2;" xml:space="preserve">
<style type="text/css">
<![CDATA[
	.st0{fill:#FFFFFF;}
]]>
</style>
<polygon class="st0" points="52.1,19.9 42.2,3.8 33.5,18 22.4,0 11.2,18 0,36 22.4,36 22.4,36 42.2,36 44.7,36 62,36 "/>
<g>
	<path class="st0" d="M78.2,35.8c-0.6,0.2-1.3,0.3-2.1,0.3s-1.5-0.1-2.1-0.3s-1.1-0.5-1.5-0.9c-0.4-0.4-0.7-0.9-1-1.4
		s-0.4-1.2-0.5-1.9c-0.1-0.7-0.2-1.4-0.2-2.3V17.6h2.6v11.8c0,0.6,0,1,0,1.4c0,0.4,0.1,0.8,0.2,1.2c0.1,0.4,0.2,0.8,0.4,1
		c0.2,0.3,0.4,0.5,0.8,0.6S75.6,34,76,34s0.9-0.1,1.2-0.3c0.3-0.2,0.6-0.4,0.8-0.6s0.3-0.6,0.4-1c0.1-0.4,0.2-0.8,0.2-1.2
		s0-0.9,0-1.4V17.6h2.6v11.8c0,0.8-0.1,1.6-0.2,2.3c-0.1,0.7-0.3,1.3-0.5,1.9s-0.6,1.1-1,1.4C79.3,35.3,78.8,35.6,78.2,35.8z"/>
	<path class="st0" d="M84.3,36V17.6h4.6c3.1,0,4.6,1.8,4.6,5.2c0,1.5-0.4,2.6-1.2,3.4c-0.8,0.8-1.9,1.2-3.4,1.2h-2V36H84.3z
		 M86.9,25.5h0.7c0.6,0,1.1,0,1.5-0.1c0.4-0.1,0.7-0.2,1-0.4c0.3-0.2,0.5-0.5,0.6-0.8c0.1-0.3,0.2-0.8,0.2-1.3c0-0.7,0-1.2-0.1-1.6
		c-0.1-0.4-0.3-0.7-0.5-1c-0.3-0.3-0.6-0.4-1-0.5c-0.4-0.1-0.9-0.1-1.6-0.1h-0.7V25.5z"/>
	<path class="st0" d="M97.6,36l-3.3-18.4h2.6l1.3,8.5l0.7,5.2l0.6-5.2l1.3-8.5h2.6l1.3,8.5l0.6,5.2l0.7-5.2l1.3-8.5h2.6L106.8,36
		h-2.6l-1.3-8.5l-0.7-5.2l-0.7,5.2l-1.3,8.5H97.6z"/>
	<path class="st0" d="M110.4,36l3.9-18.4h2.6l3.9,18.4h-2.6l-1-4.6H114l-1,4.6H110.4z M114.4,29.4h2.6l-1.3-7.9L114.4,29.4z"/>
	<path class="st0" d="M122.9,36V17.6h3.3c2,0,3.4,0.4,4.4,1.1s1.5,2,1.5,3.8c0,1.1-0.2,2-0.6,2.7s-1,1.2-1.7,1.5l3,9.2h-2.6
		l-2.6-8.5h-2V36H122.9z M125.6,25.5h0.7c1.1,0,1.9-0.2,2.5-0.7c0.5-0.5,0.8-1.2,0.8-2.3s-0.3-1.8-0.8-2.3c-0.5-0.5-1.4-0.7-2.5-0.7
		h-0.7V25.5z"/>
	<path class="st0" d="M134.8,36V17.6h4.1c1.9,0,3.3,0.4,4.1,1.2c0.8,0.8,1.2,2.1,1.2,4.1v7.2c0,2-0.4,3.5-1.2,4.5
		c-0.8,1-2.2,1.4-4.1,1.4H134.8z M137.4,34h1.4c0.4,0,0.8,0,1.1-0.1c0.3-0.1,0.6-0.2,0.7-0.4c0.2-0.2,0.3-0.4,0.5-0.6
		c0.1-0.2,0.2-0.5,0.2-0.9c0-0.4,0.1-0.7,0.1-1c0-0.3,0-0.7,0-1.2c0-0.2,0-0.3,0-0.4v-5.9c0-0.3,0-0.6,0-0.8c0-0.2,0-0.4,0-0.7
		c0-0.3,0-0.5-0.1-0.6s-0.1-0.3-0.1-0.5c-0.1-0.2-0.1-0.3-0.2-0.5c-0.1-0.1-0.2-0.2-0.3-0.3c-0.1-0.1-0.3-0.2-0.5-0.3
		c-0.2-0.1-0.4-0.1-0.6-0.1s-0.5-0.1-0.8-0.1h-1.4V34z"/>
	<path class="st0" d="M153.7,36v-16h-3.3v-2.3h9.2v2.3h-3.3v16H153.7z"/>
	<path class="st0" d="M161.4,36V17.6h3.3c2,0,3.4,0.4,4.4,1.1c1,0.8,1.5,2,1.5,3.8c0,1.1-0.2,2-0.6,2.7c-0.4,0.7-1,1.2-1.7,1.5
		l3,9.2h-2.6l-2.6-8.5h-2V36H161.4z M164.1,25.5h0.7c1.1,0,1.9-0.2,2.5-0.7c0.5-0.5,0.8-1.2,0.8-2.3s-0.3-1.8-0.8-2.3
		c-0.5-0.5-1.4-0.7-2.5-0.7h-0.7V25.5z"/>
	<path class="st0" d="M172.2,36l3.9-18.4h2.6l3.9,18.4h-2.6l-1-4.6h-3.3l-1,4.6H172.2z M176.1,29.4h2.6l-1.3-7.9L176.1,29.4z"/>
	<path class="st0" d="M183.6,36v-2c0.6,0,1,0,1.3-0.1c0.3-0.1,0.6-0.2,0.8-0.4c0.2-0.2,0.3-0.5,0.4-0.8s0.1-0.8,0.1-1.3V17.6h2.6
		v13.8c0,0.8-0.1,1.5-0.2,2.1c-0.1,0.5-0.3,1-0.6,1.4c-0.3,0.4-0.7,0.7-1.2,0.9c-0.5,0.2-1.2,0.3-2,0.3H183.6z"/>
	<path class="st0" d="M192,36V17.6h7.2v2h-4.6v5.9h3.3v2h-3.3V34h4.6v2H192z"/>
	<path class="st0" d="M206.1,36.2c-0.8,0-1.5-0.1-2-0.3s-1.1-0.5-1.4-0.9s-0.7-0.9-0.9-1.4c-0.2-0.6-0.4-1.2-0.5-1.9
		s-0.1-1.4-0.1-2.2v-5.2c0-0.8,0-1.6,0.1-2.2s0.3-1.3,0.5-1.9c0.2-0.6,0.5-1.1,0.9-1.4s0.9-0.7,1.4-0.9s1.3-0.3,2-0.3
		c0.9,0,1.6,0.1,2.2,0.4s1.1,0.6,1.5,1.1c0.4,0.5,0.7,1.1,0.8,1.7c0.2,0.6,0.3,1.4,0.3,2.3c0,0.1,0,0.3,0,0.6h-2.6v-0.6
		c0-0.4,0-0.7,0-0.9c0-0.3-0.1-0.5-0.1-0.8s-0.1-0.5-0.2-0.7c-0.1-0.2-0.2-0.3-0.4-0.5c-0.2-0.2-0.4-0.3-0.6-0.3
		c-0.2-0.1-0.5-0.1-0.9-0.1c-0.4,0-0.8,0.1-1.1,0.2c-0.3,0.1-0.5,0.3-0.7,0.5c-0.2,0.2-0.3,0.5-0.4,0.9c-0.1,0.4-0.2,0.7-0.2,1.1
		s0,0.8,0,1.3v6.6c0,0.4,0,0.8,0.1,1.2c0,0.4,0.1,0.7,0.2,1.1c0.1,0.4,0.3,0.6,0.4,0.9c0.2,0.2,0.4,0.4,0.7,0.6
		c0.3,0.1,0.6,0.2,1,0.2s0.7-0.1,1-0.2s0.5-0.3,0.7-0.6c0.2-0.2,0.3-0.5,0.4-0.9c0.1-0.4,0.2-0.7,0.2-1.1s0-0.7,0-1.2v-0.7h2.6v0.7
		c0,1-0.1,1.8-0.3,2.5c-0.2,0.7-0.4,1.4-0.8,1.9c-0.4,0.6-0.9,1-1.5,1.3C207.8,36,207,36.2,206.1,36.2z"/>
	<path class="st0" d="M215.2,36v-16H212v-2.3h9.2v2.3h-3.3v16H215.2z"/>
	<path class="st0" d="M227.6,36.2c-0.9,0-1.7-0.1-2.4-0.4c-0.7-0.3-1.2-0.7-1.6-1.2c-0.4-0.5-0.7-1.2-0.9-1.9
		c-0.2-0.7-0.3-1.6-0.3-2.5v-6.7c0-1,0.1-1.8,0.3-2.5s0.5-1.3,0.9-1.9c0.4-0.5,0.9-0.9,1.6-1.2c0.7-0.3,1.5-0.4,2.4-0.4
		c1.8,0,3.1,0.5,3.9,1.5s1.2,2.5,1.2,4.5v6.7c0,1-0.1,1.8-0.3,2.5c-0.2,0.7-0.5,1.4-0.9,1.9c-0.4,0.5-0.9,1-1.6,1.2
		C229.3,36,228.5,36.2,227.6,36.2z M225.6,33.2c0.4,0.6,1,0.8,1.9,0.8s1.6-0.3,1.9-0.8c0.4-0.6,0.5-1.4,0.5-2.5v-8
		c0-1.1-0.2-1.9-0.5-2.4c-0.3-0.5-1-0.8-1.9-0.8s-1.6,0.3-1.9,0.8c-0.3,0.5-0.5,1.3-0.5,2.4v8C225.1,31.8,225.3,32.6,225.6,33.2z"/>
	<path class="st0" d="M235.4,36V17.6h3.3c2,0,3.4,0.4,4.4,1.1c1,0.8,1.5,2,1.5,3.8c0,1.1-0.2,2-0.6,2.7c-0.4,0.7-1,1.2-1.7,1.5
		l3,9.2h-2.6l-2.6-8.5h-2V36H235.4z M238.1,25.5h0.7c1.1,0,1.9-0.2,2.5-0.7c0.5-0.5,0.8-1.2,0.8-2.3s-0.3-1.8-0.8-2.3
		c-0.5-0.5-1.4-0.7-2.5-0.7h-0.7V25.5z"/>
	<path class="st0" d="M249.6,36v-5.9l-3.9-12.5h2.6l2.6,9.2l2.6-9.2h2.6l-3.9,12.5V36H249.6z"/>
</g>
</svg>
