<?xml version="1.0" encoding="utf-8"?>
<!-- Generator: Adobe Illustrator 16.0.4, SVG Export Plug-In . SVG Version: 6.00 Build 0)  -->
<!DOCTYPE svg PUBLIC "-//W3C//DTD SVG 1.1//EN" "http://www.w3.org/Graphics/SVG/1.1/DTD/svg11.dtd">
<svg version="1.1" id="Layer_1" xmlns="http://www.w3.org/2000/svg" xmlns:xlink="http://www.w3.org/1999/xlink" x="0px" y="0px"
	 width="256.2px" height="32px" viewBox="0 0 256.2 32" style="enable-background:new 0 0 256.2 32;" xml:space="preserve">
<style type="text/css">
<![CDATA[
	.st0{fill:#FFFFFF;}
]]>
</style>
<polygon class="st0" points="52.1,17.6 42.2,3.4 33.5,16 22.4,0 11.2,15.9 0,31.8 22.4,31.8 22.4,31.8 42.2,31.8 44.7,31.8 62,31.8 
	"/>
<g>
	<path class="st0" d="M78.2,31.7C77.5,31.9,76.8,32,76,32s-1.5-0.1-2.1-0.3s-1.1-0.5-1.5-0.9c-0.4-0.4-0.7-0.9-1-1.4
		s-0.4-1.2-0.5-1.9c-0.1-0.7-0.2-1.4-0.2-2.3V13.4h2.6v11.8c0,0.6,0,1,0,1.4c0,0.4,0.1,0.8,0.2,1.2c0.1,0.4,0.2,0.8,0.4,1
		c0.2,0.3,0.4,0.5,0.8,0.6s0.7,0.3,1.2,0.3s0.9-0.1,1.2-0.3c0.3-0.2,0.6-0.4,0.8-0.6s0.3-0.6,0.4-1c0.1-0.4,0.2-0.8,0.2-1.2
		s0-0.9,0-1.4V13.4h2.6v11.8c0,0.8-0.1,1.6-0.2,2.3c-0.1,0.7-0.3,1.3-0.5,1.9s-0.6,1.1-1,1.4C79.3,31.2,78.8,31.5,78.2,31.7z"/>
	<path class="st0" d="M84.3,31.8V13.4h4.6c3.1,0,4.6,1.8,4.6,5.2c0,1.5-0.4,2.6-1.2,3.4c-0.8,0.8-1.9,1.2-3.4,1.2h-2v8.5H84.3z
		 M86.9,21.3h0.7c0.6,0,1.1,0,1.5-0.1c0.4-0.1,0.7-0.2,1-0.4c0.3-0.2,0.5-0.5,0.6-0.8c0.1-0.3,0.2-0.8,0.2-1.3c0-0.7,0-1.2-0.1-1.6
		c-0.1-0.4-0.3-0.7-0.5-1c-0.3-0.3-0.6-0.4-1-0.5c-0.4-0.1-0.9-0.1-1.6-0.1h-0.7V21.3z"/>
	<path class="st0" d="M97.6,31.8l-3.3-18.4h2.6l1.3,8.5l0.7,5.2l0.6-5.2l1.3-8.5h2.6l1.3,8.5l0.6,5.2l0.7-5.2l1.3-8.5h2.6l-3.3,18.4
		h-2.6l-1.3-8.5l-0.7-5.2l-0.7,5.2l-1.3,8.5H97.6z"/>
	<path class="st0" d="M110.4,31.8l3.9-18.4h2.6l3.9,18.4h-2.6l-1-4.6H114l-1,4.6H110.4z M114.4,25.2h2.6l-1.3-7.9L114.4,25.2z"/>
	<path class="st0" d="M122.9,31.8V13.4h3.3c2,0,3.4,0.4,4.4,1.1s1.5,2,1.5,3.8c0,1.1-0.2,2-0.6,2.7s-1,1.2-1.7,1.5l3,9.2h-2.6
		l-2.6-8.5h-2v8.5H122.9z M125.6,21.3h0.7c1.1,0,1.9-0.2,2.5-0.7c0.5-0.5,0.8-1.2,0.8-2.3s-0.3-1.8-0.8-2.3
		c-0.5-0.5-1.4-0.7-2.5-0.7h-0.7V21.3z"/>
	<path class="st0" d="M134.8,31.8V13.4h4.1c1.9,0,3.3,0.4,4.1,1.2c0.8,0.8,1.2,2.1,1.2,4.1v7.2c0,2-0.4,3.5-1.2,4.5
		c-0.8,1-2.2,1.4-4.1,1.4H134.8z M137.4,29.8h1.4c0.4,0,0.8,0,1.1-0.1c0.3-0.1,0.6-0.2,0.7-0.4c0.2-0.2,0.3-0.4,0.5-0.6
		c0.1-0.2,0.2-0.5,0.2-0.9c0-0.4,0.1-0.7,0.1-1c0-0.3,0-0.7,0-1.2c0-0.2,0-0.3,0-0.4v-5.9c0-0.3,0-0.6,0-0.8c0-0.2,0-0.4,0-0.7
		c0-0.3,0-0.5-0.1-0.6s-0.1-0.3-0.1-0.5c-0.1-0.2-0.1-0.3-0.2-0.5c-0.1-0.1-0.2-0.2-0.3-0.3c-0.1-0.1-0.3-0.2-0.5-0.3
		c-0.2-0.1-0.4-0.1-0.6-0.1s-0.5-0.1-0.8-0.1h-1.4V29.8z"/>
	<path class="st0" d="M153.7,31.8v-16h-3.3v-2.3h9.2v2.3h-3.3v16H153.7z"/>
	<path class="st0" d="M161.4,31.8V13.4h3.3c2,0,3.4,0.4,4.4,1.1c1,0.8,1.5,2,1.5,3.8c0,1.1-0.2,2-0.6,2.7c-0.4,0.7-1,1.2-1.7,1.5
		l3,9.2h-2.6l-2.6-8.5h-2v8.5H161.4z M164.1,21.3h0.7c1.1,0,1.9-0.2,2.5-0.7c0.5-0.5,0.8-1.2,0.8-2.3s-0.3-1.8-0.8-2.3
		c-0.5-0.5-1.4-0.7-2.5-0.7h-0.7V21.3z"/>
	<path class="st0" d="M172.2,31.8l3.9-18.4h2.6l3.9,18.4h-2.6l-1-4.6h-3.3l-1,4.6H172.2z M176.1,25.2h2.6l-1.3-7.9L176.1,25.2z"/>
	<path class="st0" d="M183.6,31.8v-2c0.6,0,1,0,1.3-0.1c0.3-0.1,0.6-0.2,0.8-0.4c0.2-0.2,0.3-0.5,0.4-0.8s0.1-0.8,0.1-1.3V13.4h2.6
		v13.8c0,0.8-0.1,1.5-0.2,2.1c-0.1,0.5-0.3,1-0.6,1.4c-0.3,0.4-0.7,0.7-1.2,0.9c-0.5,0.2-1.2,0.3-2,0.3H183.6z"/>
	<path class="st0" d="M192,31.8V13.4h7.2v2h-4.6v5.9h3.3v2h-3.3v6.6h4.6v2H192z"/>
	<path class="st0" d="M206.1,32c-0.8,0-1.5-0.1-2-0.3s-1.1-0.5-1.4-0.9s-0.7-0.9-0.9-1.4c-0.2-0.6-0.4-1.2-0.5-1.9s-0.1-1.4-0.1-2.2
		V20c0-0.8,0-1.6,0.1-2.2s0.3-1.3,0.5-1.9c0.2-0.6,0.5-1.1,0.9-1.4s0.9-0.7,1.4-0.9s1.3-0.3,2-0.3c0.9,0,1.6,0.1,2.2,0.4
		s1.1,0.6,1.5,1.1c0.4,0.5,0.7,1.1,0.8,1.7c0.2,0.6,0.3,1.4,0.3,2.3c0,0.1,0,0.3,0,0.6h-2.6v-0.6c0-0.4,0-0.7,0-0.9
		c0-0.3-0.1-0.5-0.1-0.8s-0.1-0.5-0.2-0.7c-0.1-0.2-0.2-0.3-0.4-0.5c-0.2-0.2-0.4-0.3-0.6-0.3c-0.2-0.1-0.5-0.1-0.9-0.1
		c-0.4,0-0.8,0.1-1.1,0.2c-0.3,0.1-0.5,0.3-0.7,0.5c-0.2,0.2-0.3,0.5-0.4,0.9c-0.1,0.4-0.2,0.7-0.2,1.1s0,0.8,0,1.3v6.6
		c0,0.4,0,0.8,0.1,1.2c0,0.4,0.1,0.7,0.2,1.1c0.1,0.4,0.3,0.6,0.4,0.9c0.2,0.2,0.4,0.4,0.7,0.6c0.3,0.1,0.6,0.2,1,0.2s0.7-0.1,1-0.2
		s0.5-0.3,0.7-0.6c0.2-0.2,0.3-0.5,0.4-0.9c0.1-0.4,0.2-0.7,0.2-1.1s0-0.7,0-1.2v-0.7h2.6v0.7c0,1-0.1,1.8-0.3,2.5
		c-0.2,0.7-0.4,1.4-0.8,1.9c-0.4,0.6-0.9,1-1.5,1.3C207.8,31.8,207,32,206.1,32z"/>
	<path class="st0" d="M215.2,31.8v-16H212v-2.3h9.2v2.3h-3.3v16H215.2z"/>
	<path class="st0" d="M227.6,32c-0.9,0-1.7-0.1-2.4-0.4c-0.7-0.3-1.2-0.7-1.6-1.2c-0.4-0.5-0.7-1.2-0.9-1.9
		c-0.2-0.7-0.3-1.6-0.3-2.5v-6.7c0-1,0.1-1.8,0.3-2.5s0.5-1.3,0.9-1.9c0.4-0.5,0.9-0.9,1.6-1.2c0.7-0.3,1.5-0.4,2.4-0.4
		c1.8,0,3.1,0.5,3.9,1.5s1.2,2.5,1.2,4.5v6.7c0,1-0.1,1.8-0.3,2.5c-0.2,0.7-0.5,1.4-0.9,1.9c-0.4,0.5-0.9,1-1.6,1.2
		C229.3,31.8,228.5,32,227.6,32z M225.6,29c0.4,0.6,1,0.8,1.9,0.8s1.6-0.3,1.9-0.8c0.4-0.6,0.5-1.4,0.5-2.5v-8
		c0-1.1-0.2-1.9-0.5-2.4c-0.3-0.5-1-0.8-1.9-0.8s-1.6,0.3-1.9,0.8c-0.3,0.5-0.5,1.3-0.5,2.4v8C225.1,27.6,225.3,28.4,225.6,29z"/>
	<path class="st0" d="M235.4,31.8V13.4h3.3c2,0,3.4,0.4,4.4,1.1c1,0.8,1.5,2,1.5,3.8c0,1.1-0.2,2-0.6,2.7c-0.4,0.7-1,1.2-1.7,1.5
		l3,9.2h-2.6l-2.6-8.5h-2v8.5H235.4z M238.1,21.3h0.7c1.1,0,1.9-0.2,2.5-0.7c0.5-0.5,0.8-1.2,0.8-2.3s-0.3-1.8-0.8-2.3
		c-0.5-0.5-1.4-0.7-2.5-0.7h-0.7V21.3z"/>
	<path class="st0" d="M249.6,31.8v-5.9l-3.9-12.5h2.6l2.6,9.2l2.6-9.2h2.6l-3.9,12.5v5.9H249.6z"/>
</g>
</svg>
