<?xml version="1.0" encoding="utf-8"?>
<!-- Generator: Adobe Illustrator 16.0.4, SVG Export Plug-In . SVG Version: 6.00 Build 0)  -->
<!DOCTYPE svg PUBLIC "-//W3C//DTD SVG 1.1//EN" "http://www.w3.org/Graphics/SVG/1.1/DTD/svg11.dtd">
<svg version="1.1" id="Layer_1" xmlns="http://www.w3.org/2000/svg" xmlns:xlink="http://www.w3.org/1999/xlink" x="0px" y="0px"
	 width="234.8px" height="36.4px" viewBox="0 0 234.8 36.4" style="enable-background:new 0 0 234.8 36.4;" xml:space="preserve">
<style type="text/css">
<![CDATA[
	.st0{fill:#FFFFFF;}
]]>
</style>
<polygon class="st0" points="0,31.2 17.9,0.2 35.8,31.2 "/>
<polygon class="st0" points="18.7,31.2 33.6,5.4 48.5,31.2 "/>
<g>
	<path class="st0" d="M61.8,31.1c-0.6,0.2-1.3,0.3-2.1,0.3s-1.5-0.1-2.1-0.3s-1.1-0.5-1.5-0.9c-0.4-0.4-0.7-0.9-1-1.4
		s-0.4-1.2-0.5-1.9c-0.1-0.7-0.2-1.4-0.2-2.3V12.9H57v11.8c0,0.6,0,1,0,1.4c0,0.4,0.1,0.8,0.2,1.2c0.1,0.4,0.2,0.8,0.4,1
		c0.2,0.3,0.4,0.5,0.8,0.6s0.7,0.3,1.2,0.3s0.9-0.1,1.2-0.3c0.3-0.2,0.6-0.4,0.8-0.6s0.3-0.6,0.4-1c0.1-0.4,0.2-0.8,0.2-1.2
		s0-0.9,0-1.4V12.9h2.6v11.8c0,0.8-0.1,1.6-0.2,2.3c-0.1,0.7-0.3,1.3-0.5,1.9s-0.6,1.1-1,1.4C62.9,30.6,62.4,30.9,61.8,31.1z"/>
	<path class="st0" d="M67.5,31.2V12.9h4.6c3.1,0,4.6,1.8,4.6,5.2c0,1.5-0.4,2.6-1.2,3.4c-0.8,0.8-1.9,1.2-3.4,1.2h-2v8.5H67.5z
		 M70.2,20.7h0.7c0.6,0,1.1,0,1.5-0.1c0.4-0.1,0.7-0.2,1-0.4c0.3-0.2,0.5-0.5,0.6-0.8c0.1-0.3,0.2-0.8,0.2-1.3c0-0.7,0-1.2-0.1-1.6
		c-0.1-0.4-0.3-0.7-0.5-1c-0.3-0.3-0.6-0.4-1-0.5c-0.4-0.1-0.9-0.1-1.6-0.1h-0.7V20.7z"/>
	<path class="st0" d="M80.5,31.2l-3.3-18.4h2.6l1.3,8.5l0.7,5.2l0.6-5.2l1.3-8.5h2.6l1.3,8.5l0.6,5.2l0.7-5.2l1.3-8.5h2.6l-3.3,18.4
		H87l-1.3-8.5L85,17.4l-0.7,5.2l-1.3,8.5H80.5z"/>
	<path class="st0" d="M93.3,31.2l3.9-18.4h2.6l3.9,18.4h-2.6l-1-4.6H97l-1,4.6H93.3z M97.3,24.7h2.6l-1.3-7.9L97.3,24.7z"/>
	<path class="st0" d="M105.5,31.2V12.9h3.3c2,0,3.4,0.4,4.4,1.1s1.5,2,1.5,3.8c0,1.1-0.2,2-0.6,2.7s-1,1.2-1.7,1.5l3,9.2h-2.6
		l-2.6-8.5h-2v8.5H105.5z M108.1,20.7h0.7c1.1,0,1.9-0.2,2.5-0.7c0.5-0.5,0.8-1.2,0.8-2.3s-0.3-1.8-0.8-2.3
		c-0.5-0.5-1.4-0.7-2.5-0.7h-0.7V20.7z"/>
	<path class="st0" d="M117,31.2V12.9h4.1c1.9,0,3.3,0.4,4.1,1.2c0.8,0.8,1.2,2.1,1.2,4.1v7.2c0,2-0.4,3.5-1.2,4.5
		c-0.8,1-2.2,1.4-4.1,1.4H117z M119.6,29.3h1.4c0.4,0,0.8,0,1.1-0.1c0.3-0.1,0.6-0.2,0.7-0.4c0.2-0.2,0.3-0.4,0.5-0.6
		c0.1-0.2,0.2-0.5,0.2-0.9s0.1-0.7,0.1-1c0-0.3,0-0.7,0-1.2c0-0.2,0-0.3,0-0.4v-5.9c0-0.3,0-0.6,0-0.8s0-0.4,0-0.7
		c0-0.3,0-0.5-0.1-0.6s-0.1-0.3-0.1-0.5c-0.1-0.2-0.1-0.3-0.2-0.5c-0.1-0.1-0.2-0.2-0.3-0.3c-0.1-0.1-0.3-0.2-0.5-0.3
		c-0.2-0.1-0.4-0.1-0.6-0.1s-0.5-0.1-0.8-0.1h-1.4V29.3z"/>
	<path class="st0" d="M135.1,31.2v-16h-3.3v-2.3h9.2v2.3h-3.3v16H135.1z"/>
	<path class="st0" d="M142.5,31.2V12.9h3.3c2,0,3.4,0.4,4.4,1.1s1.5,2,1.5,3.8c0,1.1-0.2,2-0.6,2.7s-1,1.2-1.7,1.5l3,9.2h-2.6
		l-2.6-8.5h-2v8.5H142.5z M145.1,20.7h0.7c1.1,0,1.9-0.2,2.5-0.7c0.5-0.5,0.8-1.2,0.8-2.3s-0.3-1.8-0.8-2.3
		c-0.5-0.5-1.4-0.7-2.5-0.7h-0.7V20.7z"/>
	<path class="st0" d="M152.8,31.2l3.9-18.4h2.6l3.9,18.4h-2.6l-1-4.6h-3.3l-1,4.6H152.8z M156.8,24.7h2.6l-1.3-7.9L156.8,24.7z"/>
	<path class="st0" d="M164.1,31.2v-2c0.6,0,1,0,1.3-0.1c0.3-0.1,0.6-0.2,0.8-0.4c0.2-0.2,0.3-0.5,0.4-0.8s0.1-0.8,0.1-1.3V12.9h2.6
		v13.8c0,0.8-0.1,1.5-0.2,2.1c-0.1,0.5-0.3,1-0.6,1.4c-0.3,0.4-0.7,0.7-1.2,0.9c-0.5,0.2-1.2,0.3-2,0.3H164.1z"/>
	<path class="st0" d="M172.1,31.2V12.9h7.2v2h-4.6v5.9h3.3v2h-3.3v6.6h4.6v2H172.1z"/>
	<path class="st0" d="M185.8,31.4c-0.8,0-1.5-0.1-2-0.3s-1.1-0.5-1.4-0.9s-0.7-0.9-0.9-1.4c-0.2-0.6-0.4-1.2-0.5-1.9
		s-0.1-1.4-0.1-2.2v-5.2c0-0.8,0-1.6,0.1-2.2s0.3-1.3,0.5-1.9c0.2-0.6,0.5-1.1,0.9-1.4s0.9-0.7,1.4-0.9s1.3-0.3,2-0.3
		c0.9,0,1.6,0.1,2.2,0.4s1.1,0.6,1.5,1.1c0.4,0.5,0.7,1.1,0.8,1.7c0.2,0.6,0.3,1.4,0.3,2.3c0,0.1,0,0.3,0,0.6H188v-0.6
		c0-0.4,0-0.7,0-0.9c0-0.3-0.1-0.5-0.1-0.8s-0.1-0.5-0.2-0.7c-0.1-0.2-0.2-0.3-0.4-0.5c-0.2-0.2-0.4-0.3-0.6-0.3
		c-0.2-0.1-0.5-0.1-0.9-0.1c-0.4,0-0.8,0.1-1.1,0.2c-0.3,0.1-0.5,0.3-0.7,0.5c-0.2,0.2-0.3,0.5-0.4,0.9c-0.1,0.4-0.2,0.7-0.2,1.1
		s0,0.8,0,1.3v6.6c0,0.4,0,0.8,0.1,1.2c0,0.4,0.1,0.7,0.2,1.1s0.3,0.6,0.4,0.9c0.2,0.2,0.4,0.4,0.7,0.6c0.3,0.1,0.6,0.2,1,0.2
		s0.7-0.1,1-0.2s0.5-0.3,0.7-0.6s0.3-0.5,0.4-0.9c0.1-0.4,0.2-0.7,0.2-1.1s0-0.7,0-1.2v-0.7h2.6v0.7c0,1-0.1,1.8-0.3,2.5
		s-0.4,1.4-0.8,1.9c-0.4,0.6-0.9,1-1.5,1.3C187.4,31.3,186.7,31.4,185.8,31.4z"/>
	<path class="st0" d="M194.5,31.2v-16h-3.3v-2.3h9.2v2.3h-3.3v16H194.5z"/>
	<path class="st0" d="M206.6,31.4c-0.9,0-1.7-0.1-2.4-0.4s-1.2-0.7-1.6-1.2s-0.7-1.2-0.9-1.9c-0.2-0.7-0.3-1.6-0.3-2.5v-6.7
		c0-1,0.1-1.8,0.3-2.5s0.5-1.3,0.9-1.9s0.9-0.9,1.6-1.2s1.5-0.4,2.4-0.4c1.8,0,3.1,0.5,3.9,1.5s1.2,2.5,1.2,4.5v6.7
		c0,1-0.1,1.8-0.3,2.5c-0.2,0.7-0.5,1.4-0.9,1.9c-0.4,0.5-0.9,1-1.6,1.2C208.3,31.3,207.5,31.4,206.6,31.4z M204.7,28.4
		c0.4,0.6,1,0.8,1.9,0.8s1.6-0.3,1.9-0.8s0.5-1.4,0.5-2.5v-8c0-1.1-0.2-1.9-0.5-2.4s-1-0.8-1.9-0.8s-1.6,0.3-1.9,0.8
		s-0.5,1.3-0.5,2.4v8C204.2,27.1,204.3,27.9,204.7,28.4z"/>
	<path class="st0" d="M214.1,31.2V12.9h3.3c2,0,3.4,0.4,4.4,1.1s1.5,2,1.5,3.8c0,1.1-0.2,2-0.6,2.7s-1,1.2-1.7,1.5l3,9.2h-2.6
		l-2.6-8.5h-2v8.5H214.1z M216.7,20.7h0.7c1.1,0,1.9-0.2,2.5-0.7c0.5-0.5,0.8-1.2,0.8-2.3s-0.3-1.8-0.8-2.3
		c-0.5-0.5-1.4-0.7-2.5-0.7h-0.7V20.7z"/>
	<path class="st0" d="M228.2,31.2v-5.9l-3.9-12.5h2.6l2.6,9.2l2.6-9.2h2.6l-3.9,12.5v5.9H228.2z"/>
</g>
</svg>
